<?xml version="1.0" encoding="iso-8859-1"?>
<!-- Generator: Adobe Illustrator 19.0.0, SVG Export Plug-In . SVG Version: 6.00 Build 0)  -->
<svg version="1.1" id="Layer_1" xmlns="http://www.w3.org/2000/svg" xmlns:xlink="http://www.w3.org/1999/xlink" x="0px" y="0px"
	 viewBox="0 0 511.999 511.999" style="enable-background:new 0 0 511.999 511.999;" xml:space="preserve">
<path style="fill:#E7ECED;" d="M276.481,286.814h0.145c0-8.261,8.739-15.25,19.591-15.25c4.952,0,9.468,1.483,12.818,3.953
	c3.859,2.754,6.264,6.848,6.264,11.296c0-8.261,9.322-15.25,20.172-15.25c10.851,0,19.08,6.99,19.08,15.25
	c0-8.261,9.395-15.25,20.172-15.25c10.851,0,19.663,6.707,19.663,14.968v59.87v28.241v83.452l-23.523,45.609H236.791l-43.186-95.101
	v-33.959v-28.241v-44.409c0,0,43.186-7.625,43.186,19.063l0.364,45.68l0.073-78.51l0.073-36.219l0.073-52.74
	c0-8.261,8.739-15.25,19.591-15.25s19.663,6.99,19.663,15.25l-0.073,52.175L276.481,286.814z"/>
<path style="fill:#EF3E25;" d="M296.217,271.565c-10.851,0-19.591,6.99-19.591,15.25h-0.145l0.073-35.371
	c26.145-8.331,45.006-32.195,45.006-60.364c0-35.089-29.349-63.542-65.543-63.542c-36.194,0-65.543,28.452-65.543,63.542
	c0,28.805,19.736,53.093,46.828,60.929l-0.073,36.219c-47.337-8.543-83.167-48.786-83.167-97.149
	c0-54.575,45.662-98.843,101.957-98.843s101.957,44.268,101.957,98.843c0,35.795-19.591,67.072-48.939,84.44
	C305.684,273.048,301.169,271.565,296.217,271.565z"/>
<path style="fill:#F25B22;" d="M321.56,191.078c0,28.171-18.862,52.034-45.006,60.364l0.073-52.175
	c0-8.261-8.812-15.25-19.663-15.25s-19.591,6.99-19.591,15.25l-0.073,52.74c-27.091-7.837-46.828-32.124-46.828-60.929
	c0-35.089,29.349-63.542,65.543-63.542C292.211,127.537,321.56,155.989,321.56,191.078z"/>
<path style="fill:#606669;" d="M335.47,271.565c-10.851,0-20.172,6.99-20.172,15.25c0-4.448-2.403-8.543-6.264-11.296
	c29.349-17.368,48.939-48.645,48.939-84.44c0-54.575-45.662-98.843-101.957-98.843c-56.294,0-101.957,44.268-101.957,98.843
	c0,48.362,35.831,88.606,83.167,97.149l-0.073,78.51l-0.364-45.68c0-26.688-43.186-19.063-43.186-19.063v44.409H81.234V35.754H430.8
	v310.649h-36.413v-59.87c0-8.261-8.812-14.968-19.663-14.968c-10.779,0-20.172,6.99-20.172,15.25
	C354.551,278.555,346.321,271.565,335.47,271.565z"/>
<path style="fill:#9DA1A4;" d="M459.93,14.574v353.01c0,3.883-3.277,7.06-7.283,7.06h-58.261v-28.241h36.413V35.754H81.234v310.649
	h112.371v28.241H59.386c-4.005,0-7.283-3.177-7.283-7.06V14.574c0-3.883,3.278-7.06,7.283-7.06h393.261
	C456.653,7.514,459.93,10.69,459.93,14.574z"/>
<path style="fill:#D4D8DA;" d="M237.263,270.446l-0.036,17.781l-0.073,78.51l-0.364-45.68c0-26.688-43.186-19.063-43.186-19.063
	v44.409v28.241v33.96l43.186,95.101h134.074l22.585-43.79C320.286,417.499,264.198,350.407,237.263,270.446z"/>
<path style="fill:#4C5255;" d="M81.234,35.754v310.649h112.371v-44.409c0,0,43.186-7.624,43.186,19.063l0.364,45.68l0.073-78.51
	c-47.337-8.543-83.167-48.787-83.167-97.149c0-54.576,45.662-98.843,101.957-98.843V35.754H81.234z"/>
<path d="M452.631,0H59.369c-8.375,0-15.187,6.713-15.187,14.964v353.01c0,8.251,6.813,14.965,15.187,14.965h126.314v27.765
	l45.999,101.295h143.982l26.611-51.595v-77.466h50.356c8.374,0,15.186-6.714,15.186-14.965V14.964
	C467.817,6.713,461.005,0,452.631,0z M386.465,456.568l-20.436,39.623H241.865l-40.373-88.907v-97.847
	c7.71-0.503,18.813-0.1,24.246,4.458c1.458,1.223,3.13,3.185,3.13,7.616l0.365,45.68l15.809-0.056l0.073-78.5l0.073-36.224
	l0.073-52.751c0-3.467,4.998-7.346,11.686-7.346c6.729,0,11.759,3.878,11.759,7.334l-0.073,52.17l-0.073,35.388v26.616h15.809
	v-26.599l0.146-0.017c0-3.467,4.998-7.346,11.686-7.346c3.087,0,6.049,0.878,8.125,2.41l0.102,0.073
	c1.874,1.337,2.949,3.109,2.949,4.862h0.009v30.42h15.809v-30.45h-0.006c0.033-3.322,5.49-7.315,12.266-7.315
	c6.685,0,11.176,3.798,11.176,7.346h0.017v30.42h15.809v-30.575c0.177-4.18,7.372-7.191,12.252-7.191
	c6.73,0,11.759,3.729,11.759,7.062v169.646H386.465z M256.946,176.505c-15.161,0-27.495,10.387-27.495,23.143l-0.064,41.17
	c-18.684-9.475-31.026-28.507-31.026-49.347c0-30.678,25.856-55.637,57.639-55.637s57.639,24.959,57.639,55.637
	c0,20.372-11.371,38.706-29.187,48.426l0.062-40.236C284.514,186.892,272.147,176.505,256.946,176.505z M284.425,257.379
	c27.156-11.031,45.022-36.843,45.022-65.909c0-39.396-32.949-71.446-73.448-71.446c-40.5,0-73.448,32.05-73.448,71.446
	c0,15.753,5.162,30.69,14.93,43.192c8.176,10.469,19.343,18.632,31.878,23.408l-0.033,20.598
	c-39.556-11.246-67.38-46.547-67.38-87.199c0-50.143,42.191-90.938,94.052-90.938s94.052,40.795,94.052,90.938
	c0,30.449-15.339,58.255-41.249,75.248c-3.831-1.725-8.148-2.666-12.603-2.666c-4.217,0-8.214,0.803-11.789,2.238L284.425,257.379z
	 M374.706,264.052c-7.649,0-14.701,2.678-19.826,6.936c-4.629-4.085-11.046-6.663-18.28-6.912
	c18.659-19.45,29.259-45.099,29.259-72.606c0-58.861-49.284-106.747-109.861-106.747c-60.578,0-109.861,47.887-109.861,106.747
	c0,49.246,34.599,91.781,83.163,103.529l-0.004,2.661c-14.598-6.72-34.529-3.511-37.085-3.06l-6.53,1.153v43.136H89.119V44.049
	h333.756v294.84h-20.603v-51.967C402.274,274.312,389.907,264.052,374.706,264.052z M452.008,367.131h-49.733v-12.432h36.413V28.24
	H73.312v326.458h112.371v12.432H59.991V15.809h392.018L452.008,367.131L452.008,367.131z"/>
<polygon style="fill:#FFFFFF;" points="139.478,56.482 102.442,56.482 102.442,106.747 118.251,106.747 118.251,72.291 
	139.478,72.291 "/>
<rect x="103.064" y="120.022" width="14.565" height="15.809"/>
<rect x="103.064" y="310.648" style="fill:#FFFFFF;" width="14.565" height="15.809"/>
<rect x="103.064" y="282.403" width="14.565" height="15.809"/>
<rect x="132.195" y="310.648" width="14.565" height="15.809"/>
<rect x="394.373" y="56.482" width="14.564" height="15.809"/>
<g>
	<rect x="365.242" y="56.482" style="fill:#FFFFFF;" width="14.564" height="15.809"/>
	<rect x="394.373" y="84.726" style="fill:#FFFFFF;" width="14.564" height="15.809"/>
</g>
<g>
</g>
<g>
</g>
<g>
</g>
<g>
</g>
<g>
</g>
<g>
</g>
<g>
</g>
<g>
</g>
<g>
</g>
<g>
</g>
<g>
</g>
<g>
</g>
<g>
</g>
<g>
</g>
<g>
</g>
</svg>
